#!OML:ASF Y:\EmotionMaleHayes\Project 1\Capture day 1\Session 1\Male1.ASF
:FULLY-SPECIFIED
:DEGREES
289
root 9.19467 17.2103 2.48107 9.73147 83.7067 8.92136
lowerback 8.40297 0.789148 -0.159524
upperback 5.13931 1.19743 0.62231
thorax 0.587724 0.654539 0.638756
lowerneck -24.2338 -1.09867 2.20248
upperneck 15.4548 -2.55296 1.49458
head 8.78599 -0.879989 -0.203036
rclavicle -6.95746e-015 -4.77083e-015
rhumerus -56.3769 33.222 -101.958
rradius 104.066
rwrist -9.0488
rhand -15.5842 -29.3596
rfingers 7.12502
rthumb 10.6013 -59.0722
lclavicle -6.95746e-015 -4.77083e-015
lhumerus -50.9532 -39.1731 108.362
lradius 91.2821
lwrist -8.18311
lhand -23.8809 -39.6946
lfingers 7.12502
lthumb 2.59239 -9.73057
rfemur 0.810833 -6.08869 14.213
rtibia 7.04909
rfoot -11.8436 1.50558
rtoes 9.92917
lfemur -3.10141 0.968108 -13.6487
ltibia 16.9268
lfoot -13.8226 11.8924
ltoes -7.3305
290
root 9.21406 17.2081 2.48942 10.5187 84.3635 9.77716
lowerback 8.2884 0.694222 -0.137052
upperback 5.13466 1.07315 0.637545
thorax 0.647455 0.592645 0.653164
lowerneck -23.9516 -1.06881 2.21563
upperneck 15.2569 -2.50252 1.49649
head 8.67048 -0.860948 -0.194806
rclavicle -6.75868e-015 1.07344e-014
rhumerus -57.4833 33.2755 -101.872
rradius 104.247
rwrist -8.8497
rhand -15.3238 -29.4491
rfingers 7.12502
rthumb 10.8525 -59.1486
lclavicle -6.75868e-015 1.07344e-014
lhumerus -51.6656 -39.0005 107.884
lradius 90.9219
lwrist -8.98033
lhand -23.4463 -40.0436
lfingers 7.12502
lthumb 3.01206 -10.0851
rfemur 1.2657 -6.24816 14.1984
rtibia 6.73864
rfoot -11.9744 1.03326
rtoes 9.68981
lfemur -2.9756 0.942572 -13.4884
ltibia 16.6943
lfoot -13.5792 11.3121
ltoes -9.17597
291
root 9.21115 17.1976 2.50368 9.87003 84.5228 8.9838
lowerback 8.14034 0.776106 -0.229983
upperback 5.10644 1.17358 0.69811
thorax 0.695398 0.638927 0.762161
lowerneck -23.5362 -1.16481 2.03328
upperneck 14.8343 -2.58214 1.66707
head 8.46066 -0.900599 -0.114063
rclavicle 4.67144e-015 6.75868e-015
rhumerus -58.2875 33.4339 -101.653
rradius 104.203
rwrist -8.5576
rhand -15.3335 -29.0795
rfingers 7.12502
rthumb 10.8431 -58.7796
lclavicle 4.67144e-015 6.75868e-015
lhumerus -52.2778 -38.8562 107.286
lradius 90.642
lwrist -9.72175
lhand -22.8893 -40.3104
lfingers 7.12502
lthumb 3.55005 -10.3602
rfemur 1.02334 -6.10189 14.4706
rtibia 6.9447
rfoot -12.1596 0.729264
rtoes 9.80054
lfemur -3.16753 1.51992 -13.132
ltibia 16.7072
lfoot -13.448 10.6704
ltoes -10.1746
292
root 9.22472 17.1663 2.51737 9.54665 84.5306 7.90959
lowerback 7.04765 0.922798 -0.343996
upperback 5.02217 1.34818 0.7564
thorax 1.2037 0.715534 0.893065
lowerneck -23.715 -1.15917 2.16914
upperneck 14.8641 -2.59037 1.49174
head 8.49584 -0.914484 -0.19792
rclavicle -2.98177e-015 -3.97569e-015
rhumerus -59.0514 33.549 -101.32
rradius 104.21
rwrist -8.52366
rhand -15.4637 -28.5075
rfingers 7.12502
rthumb 10.7175 -58.2142
lclavicle -2.98177e-015 -3.97569e-015
lhumerus -52.9846 -38.7294 106.704
lradius 90.4872
lwrist -10.7532
lhand -22.7393 -40.4922
lfingers 7.12502
lthumb 3.69482 -10.5444
rfemur 0.191936 -5.10097 14.907
rtibia 7.03435
rfoot -12.407 -0.316934
rtoes 9.31825
lfemur -3.89805 1.96937 -12.6742
ltibia 16.6832
lfoot -13.3064 10.443
ltoes -11.8146
293
root 9.23027 17.1681 2.52138 11.8916 84.934 10.339
lowerback 7.16347 0.885012 -0.5695
upperback 5.02027 1.2873 0.757661
thorax 1.13441 0.680545 1.0222
lowerneck -24.0503 -1.10586 2.35907
upperneck 15.1003 -2.54859 1.24541
head 8.62648 -0.905162 -0.310043
rclavicle -1.19271e-015 6.75868e-015
rhumerus -60.0479 33.7341 -101.119
rradius 104.308
rwrist -8.75413
rhand -15.7472 -27.8421
rfingers 7.12502
rthumb 10.444 -57.5627
lclavicle -1.19271e-015 6.75868e-015
lhumerus -53.8941 -38.4599 106.213
lradius 90.3131
lwrist -12.0709
lhand -23.2257 -40.7407
lfingers 7.12502
lthumb 3.22511 -10.7853
rfemur 0.377675 -5.15994 14.7176
rtibia 7.10285
rfoot -12.6036 -0.646987
rtoes 8.76461
lfemur -3.79752 2.02629 -12.7953
ltibia 16.597
lfoot -13.2122 10.0827
ltoes -12.8526
294
root 9.23733 17.1698 2.52303 14.4805 85.1832 13.0071
lowerback 7.27121 0.857762 -0.845493
upperback 5.04154 1.23769 0.764132
thorax 1.09287 0.650084 1.18503
lowerneck -24.3705 -1.00333 2.47507
upperneck 15.2577 -2.42986 1.08318
head 8.73089 -0.856416 -0.370425
rclavicle -1.33186e-014 -1.19271e-015
rhumerus -60.9064 34.1041 -100.901
rradius 104.403
rwrist -9.21909
rhand -15.8294 -27.5822
rfingers 7.12502
rthumb 10.3648 -57.3068
lclavicle -1.33186e-014 -1.19271e-015
lhumerus -54.763 -37.9822 105.618
lradius 90.2716
lwrist -13.2726
lhand -23.4227 -41.0667
lfingers 7.12502
lthumb 3.03485 -11.1085
rfemur 0.46223 -5.35346 14.4396
rtibia 7.24256
rfoot -12.9328 -0.731234
rtoes 7.95268
lfemur -3.62025 2.1084 -12.9703
ltibia 16.3756
lfoot -13.2229 9.78598
ltoes -12.8077
295
root 9.25157 17.1693 2.5328 16.1221 85.3034 14.7553
lowerback 7.23399 0.90809 -1.12035
upperback 5.13388 1.29361 0.766534
thorax 1.20243 0.671784 1.3401
lowerneck -24.5563 -0.952052 2.54876
upperneck 15.3078 -2.37552 0.999855
head 8.77742 -0.83413 -0.404566
rclavicle -2.5842e-015 -5.96354e-015
rhumerus -61.6717 34.2554 -100.617
rradius 104.544
rwrist -9.54562
rhand -15.5226 -27.7975
rfingers 7.12502
rthumb 10.6606 -57.507
lclavicle -2.5842e-015 -5.96354e-015
lhumerus -55.5943 -37.659 104.97
lradius 90.362
lwrist -14.2312
lhand -23.1927 -41.2518
lfingers 7.12502
lthumb 3.25698 -11.2969
rfemur 0.629119 -5.27026 14.3315
rtibia 7.27373
rfoot -12.8969 -0.934545
rtoes 8.11133
lfemur -3.25656 2.4105 -12.975
ltibia 15.9543
lfoot -13.0209 9.4582
ltoes -13.6899
296
root 9.27287 17.1655 2.55645 16.7278 85.1954 15.4122
lowerback 7.01376 1.08316 -1.46346
upperback 5.20551 1.51155 0.759051
thorax 1.38416 0.770667 1.51717
lowerneck -24.5368 -0.938632 2.57857
upperneck 15.2814 -2.36278 0.984062
head 8.76456 -0.828704 -0.412679
rclavicle -1.63997e-014 -8.74653e-015
rhumerus -62.5747 34.1468 -100.385
rradius 104.654
rwrist -9.47897
rhand -15.1899 -27.6673
rfingers 7.12502
rthumb 10.9816 -57.3601
lclavicle -1.63997e-014 -8.74653e-015
lhumerus -56.4489 -37.5703 104.369
lradius 90.3281
lwrist -15.2077
lhand -23.0765 -41.5867
lfingers 7.12502
lthumb 3.36924 -11.6336
rfemur 0.849743 -4.55374 14.4885
rtibia 7.11727
rfoot -13.0979 -1.476
rtoes 8.08092
lfemur -2.82068 3.08252 -12.7818
ltibia 15.5371
lfoot -12.6947 8.99592
ltoes -14.6106
297
root 9.29029 17.1768 2.55755 20.2582 85.3933 19.3186
lowerback 7.20762 1.11374 -1.59062
upperback 5.34608 1.5525 0.622708
thorax 1.42237 0.792426 1.44366
lowerneck -24.4946 -0.901067 2.66318
upperneck 15.2244 -2.34092 1.00144
head 8.73748 -0.81223 -0.416521
rclavicle 1.17283e-014 -4.77083e-015
rhumerus -63.3668 34.0758 -100.137
rradius 104.652
rwrist -9.42212
rhand -14.9297 -27.4987
rfingers 7.12502
rthumb 11.2326 -57.178
lclavicle 1.17283e-014 -4.77083e-015
lhumerus -57.2573 -37.567 103.74
lradius 90.1592
lwrist -16.2149
lhand -23.0368 -42.1695
lfingers 7.12502
lthumb 3.40755 -12.217
rfemur 1.35929 -4.51784 14.1352
rtibia 7.12289
rfoot -13.2208 -1.66001
rtoes 7.69398
lfemur -2.22602 2.9311 -13.1113
ltibia 15.247
lfoot -12.6093 8.7925
ltoes -13.9229
298
root 9.30476 17.1838 2.55832 22.7856 85.8118 22.0035
lowerback 7.19487 1.08128 -1.47243
upperback 5.42582 1.52144 0.509897
thorax 1.51884 0.782565 1.26469
lowerneck -24.4576 -0.862594 2.79599
upperneck 15.1954 -2.33748 1.03172
head 8.72062 -0.799259 -0.426447
rclavicle -2.18663e-014 -1.86858e-014
rhumerus -64.1429 33.9528 -99.9524
rradius 104.617
rwrist -9.36606
rhand -14.9741 -27.3203
rfingers 7.12502
rthumb 11.1897 -57.0019
lclavicle -2.18663e-014 -1.86858e-014
lhumerus -58.0096 -37.6706 103.078
lradius 89.9104
lwrist -17.135
lhand -22.8867 -42.6464
lfingers 7.12502
lthumb 3.5525 -12.6962
rfemur 1.56703 -4.37163 14.1072
rtibia 7.26027
rfoot -13.4709 -2.12013
rtoes 7.95461
lfemur -1.95225 2.75831 -13.1607
ltibia 14.9579
lfoot -12.5168 8.49582
ltoes -13.4885
299
root 9.31369 17.1857 2.55726 24.639 86.3 23.8602
lowerback 7.13122 0.983822 -1.2839
upperback 5.42864 1.40351 0.473943
thorax 1.56534 0.729227 1.1303
lowerneck -24.3836 -0.830434 2.69003
upperneck 15.1686 -2.29377 1.22576
head 8.70381 -0.763363 -0.336047
rclavicle 9.34288e-015 3.57812e-015
rhumerus -64.9627 33.9925 -99.7835
rradius 104.526
rwrist -9.13292
rhand -15.3116 -26.7087
rfingers 7.12502
rthumb 10.8642 -56.4077
lclavicle 9.34288e-015 3.57812e-015
lhumerus -58.6668 -37.6369 102.407
lradius 89.6974
lwrist -18.0326
lhand -22.6565 -42.9622
lfingers 7.12502
lthumb 3.77478 -13.0159
rfemur 1.49242 -4.38911 14.1936
rtibia 7.58741
rfoot -13.83 -2.51777
rtoes 8.33191
lfemur -1.943 2.49619 -13.105
ltibia 14.7465
lfoot -12.3961 8.2879
ltoes -13.8195
300
root 9.32074 17.1833 2.54828 24.2523 86.5843 23.3596
lowerback 6.94709 0.934749 -1.04899
upperback 5.43395 1.35126 0.494544
thorax 1.67812 0.708067 1.02656
lowerneck -24.3574 -0.827692 2.43751
upperneck 15.1648 -2.25453 1.47611
head 8.70501 -0.731501 -0.203905
rclavicle 9.14409e-015 1.59028e-014
rhumerus -65.6469 34.2305 -99.5014
rradius 104.368
rwrist -8.79152
rhand -15.5622 -26.301
rfingers 7.12502
rthumb 10.6224 -56.0125
lclavicle 9.14409e-015 1.59028e-014
lhumerus -59.3439 -37.4684 101.785
lradius 89.6922
lwrist -18.8179
lhand -22.4506 -43.1589
lfingers 7.12502
lthumb 3.97361 -13.2162
rfemur 1.1237 -4.71452 14.2273
rtibia 8.12215
rfoot -14.0404 -2.4118
rtoes 8.60876
lfemur -2.03839 2.02277 -13.0972
ltibia 14.6043
lfoot -12.5052 8.3439
ltoes -12.5924
301
root 9.32917 17.1847 2.56641 13.2244 85.8838 12.3068
lowerback 6.79607 1.3405 -0.906665
upperback 5.47142 1.89681 0.62393
thorax 1.78681 0.981633 1.05496
lowerneck -24.3017 -0.827634 2.33137
upperneck 15.1982 -2.2461 1.61617
head 8.71069 -0.717419 -0.137467
rclavicle -9.44227e-015 -2.38542e-015
rhumerus -66.3698 34.2115 -99.294
rradius 104.201
rwrist -8.23109
rhand -15.6591 -26.125
rfingers 7.12502
rthumb 10.529 -55.8413
lclavicle -9.44227e-015 -2.38542e-015
lhumerus -60.1561 -37.4286 101.273
lradius 89.7681
lwrist -19.344
lhand -22.1714 -43.3348
lfingers 7.12502
lthumb 4.24322 -13.3973
rfemur 0.673579 -4.01142 15.0205
rtibia 8.61488
rfoot -14.1173 -2.20799
rtoes 8.76717
lfemur -1.58373 2.68629 -12.336
ltibia 14.1966
lfoot -12.6232 8.39926
ltoes -11.5676
